<svg width="84" height="28" viewBox="0 0 84 28" fill="none" xmlns="http://www.w3.org/2000/svg">
<path d="M55.4611 21.1933V26C55.2689 26 55.2165 26 55.0243 26C51.5651 26 48.7698 23.2034 48.7698 19.7251V19.0085C48.7698 15.5477 51.5651 12.7511 55.0243 12.7511C58.4835 12.7511 61.2788 15.5477 61.2788 19.0085V21.1933H55.4611Z" fill="#FA4D09"/>
<path d="M69.2429 13.0483V12.454H73.6106V25.563H69.2429V24.9688C68.6489 25.161 68.02 25.2659 67.3561 25.2659C63.8969 25.2659 61.1016 22.4693 61.1016 19.0085C61.1016 15.5477 63.8969 12.7511 67.3561 12.7511C68.02 12.7511 68.6489 12.856 69.2429 13.0483ZM67.3561 17.1208C66.3079 17.1208 65.4693 17.9598 65.4693 19.0085C65.4693 20.0572 66.3079 20.8962 67.3561 20.8962C68.4043 20.8962 69.2429 20.0572 69.2429 19.0085C69.2429 17.9598 68.4043 17.1208 67.3561 17.1208Z" fill="#FA4D09"/>
<path d="M75.3088 13.9222V10.2691H79.6764V13.9222H82V18.2919H79.6764V19.0085C79.6764 20.0398 80.5499 20.9137 81.5632 20.9137C81.7554 20.9137 81.8078 20.9137 82 20.9137V25.2834C81.8078 25.2834 81.7554 25.2834 81.5632 25.2834C78.1215 25.2834 75.3088 22.4693 75.3088 19.0085V18.2919H74.3304V13.9222H75.3088Z" fill="#FA4D09"/>
<path d="M6.34255 7.79915L7.3563 17.2182L11.6988 16.7504L12.1664 21.0949L3.48136 22.0306L2 8.26696L6.34255 7.79915Z" fill="#004332"/>
<path d="M17.4262 9.10144C20.8655 8.73093 23.944 11.212 24.3144 14.6529C24.6847 18.0938 22.2047 21.1738 18.7654 21.5443C15.3261 21.9148 12.2477 19.4337 11.8773 15.9928C11.507 12.5519 13.9869 9.47195 17.4262 9.10144ZM17.8938 13.446C16.8516 13.5583 16.1076 14.4823 16.2199 15.525C16.3321 16.5677 17.2556 17.312 18.2978 17.1997C19.3401 17.0874 20.084 16.1635 19.9718 15.1208C19.8596 14.0781 18.936 13.3337 17.8938 13.446Z" fill="#004332"/>
<path d="M34.2378 9.08348L31.5906 12.5682C31.2039 12.2407 30.6932 12.0671 30.1547 12.1252C29.1125 12.2374 28.3685 13.1614 28.4808 14.2041C28.593 15.2468 29.5165 15.9911 30.5588 15.8789C31.0972 15.8208 31.5593 15.5425 31.8674 15.1402L35.1955 17.9812C34.1843 19.1976 32.7286 20.04 31.0264 20.2234C27.5871 20.5939 24.5086 18.1128 24.1382 14.6719C23.7679 11.231 26.2478 8.1511 29.6871 7.78059C31.3894 7.5972 32.9909 8.11028 34.2378 9.08348Z" fill="#004332"/>
<path d="M41.7354 6.78149L41.6718 6.19063L46.0144 5.72282L47.4172 18.7565L43.0746 19.2243L43.0111 18.6335C42.441 18.8883 41.8269 19.0599 41.1669 19.131C37.7276 19.5015 34.6491 17.0204 34.2787 13.5795C33.9084 10.1386 36.3884 7.05867 39.8277 6.68816C40.4877 6.61705 41.1243 6.65396 41.7354 6.78149ZM40.2953 11.0327C39.2531 11.145 38.5091 12.069 38.6213 13.1117C38.7335 14.1544 39.6571 14.8987 40.6993 14.7864C41.7415 14.6742 42.4855 13.7502 42.3732 12.7075C42.261 11.6648 41.3375 10.9205 40.2953 11.0327Z" fill="#004332"/>
<path d="M50.891 3L51.9047 12.419L54.8055 12.1065L55.2731 16.4511L48.0298 17.2314L46.5484 3.46782L50.891 3Z" fill="#004332"/>
</svg>
