<svg width="55" height="55" viewBox="0 0 55 55" fill="none" xmlns="http://www.w3.org/2000/svg">
<path d="M54.9802 26.4561C54.7678 20.866 52.8557 15.4737 49.499 10.9986C46.1422 6.52354 41.5005 3.17862 36.1933 1.41022C30.8861 -0.358189 25.1657 -0.465962 19.7956 1.10128C14.4256 2.66851 9.66116 5.83622 6.13824 10.1817C2.61531 14.5271 0.50142 19.8436 0.0786593 25.4217C-0.344101 30.9998 0.944375 36.5742 3.77214 41.401C6.59991 46.2278 10.8325 50.0773 15.905 52.436C20.9776 54.7947 26.6488 55.5503 32.1619 54.6019L27.5 27.5L54.9802 26.4561Z" fill="#FA4D09"/>
<path d="M39.5371 13.6165C40.4479 13.723 41.1478 14.5047 41.1336 15.4413C41.1268 15.8848 40.9602 16.2876 40.6905 16.5982L40.6375 16.6873C40.6037 16.7468 40.5532 16.826 40.5011 16.9113C40.5351 16.9856 40.5722 17.0696 40.6071 17.1636C40.6082 17.1654 40.6095 17.1672 40.6106 17.1692C40.6162 17.1789 40.6253 17.1937 40.6332 17.2074L40.6975 17.3226L40.735 17.3919L40.7661 17.4639L40.8262 17.618C40.8778 17.7653 40.9053 17.8859 40.9103 17.9056C41.1526 18.875 40.563 19.8577 39.5936 20.1C38.6675 20.3315 37.7319 19.8029 37.4388 18.9099C37.4234 18.8826 37.4056 18.8518 37.3873 18.8173L37.3032 18.6491L37.248 18.5311L37.2106 18.4067C37.2151 18.4215 37.2322 18.4522 37.1173 18.2307C37.0448 18.091 36.859 17.7422 36.7901 17.2745L36.7682 17.0675C36.7454 16.7006 36.7637 16.0953 37.0933 15.5452L37.3237 15.1756C37.3773 15.0923 37.4204 15.025 37.4897 14.9028L37.6078 14.7021C37.6486 14.6352 37.6904 14.5692 37.7321 14.5077C37.7698 14.4522 37.8348 14.3606 37.9159 14.266C37.9521 14.2238 38.034 14.1297 38.1519 14.0314C38.2105 13.9826 38.3197 13.8976 38.4714 13.8173C38.6011 13.7485 38.918 13.598 39.3519 13.6045L39.5371 13.6165ZM39.2975 17.2229C39.3594 17.2239 39.4188 17.2207 39.4756 17.2159C39.417 17.2207 39.3576 17.2239 39.2975 17.2229ZM39.5074 17.2123C39.549 17.2081 39.589 17.2027 39.6276 17.1961C39.5879 17.2028 39.5479 17.2083 39.5074 17.2123ZM39.7046 17.1813C39.7323 17.1753 39.7587 17.1683 39.7845 17.1615C39.758 17.1684 39.7315 17.1755 39.7046 17.1813ZM39.87 17.1374C39.9056 17.1261 39.9389 17.1146 39.9696 17.1028C39.9368 17.1153 39.9036 17.1268 39.87 17.1374Z" fill="#B23200"/>
<path d="M29.4055 13.6165C30.3163 13.723 31.0162 14.5047 31.002 15.4413C30.9953 15.8848 30.8286 16.2876 30.5589 16.5982L30.5059 16.6873C30.4721 16.7468 30.4216 16.826 30.3695 16.9113C30.4036 16.9856 30.4406 17.0696 30.4755 17.1636C30.4766 17.1654 30.4779 17.1672 30.479 17.1692C30.4846 17.1789 30.4937 17.1937 30.5017 17.2074L30.566 17.3226L30.6034 17.3919L30.6345 17.4639L30.6946 17.618C30.7462 17.7653 30.7738 17.8859 30.7787 17.9056C31.021 18.875 30.4314 19.8577 29.4621 20.1C28.5359 20.3315 27.6004 19.8029 27.3073 18.9099C27.2918 18.8826 27.274 18.8518 27.2557 18.8173L27.1716 18.6491L27.1165 18.5311L27.079 18.4067C27.0835 18.4215 27.1006 18.4522 26.9857 18.2307C26.9132 18.091 26.7274 17.7422 26.6585 17.2745L26.6366 17.0675C26.6139 16.7006 26.6322 16.0953 26.9617 15.5452L27.1921 15.1756C27.2457 15.0923 27.2889 15.025 27.3582 14.9028L27.4762 14.7021C27.517 14.6352 27.5588 14.5692 27.6006 14.5077C27.6383 14.4522 27.7032 14.3606 27.7843 14.266C27.8205 14.2238 27.9025 14.1297 28.0204 14.0314C28.0789 13.9826 28.1882 13.8976 28.3398 13.8173C28.4695 13.7485 28.7864 13.598 29.2204 13.6045L29.4055 13.6165ZM29.166 17.2229C29.2278 17.2239 29.2872 17.2207 29.344 17.2159C29.2854 17.2207 29.226 17.2239 29.166 17.2229ZM29.3759 17.2123C29.4174 17.2081 29.4575 17.2027 29.496 17.1961C29.4563 17.2028 29.4163 17.2083 29.3759 17.2123ZM29.573 17.1813C29.6007 17.1753 29.6272 17.1683 29.6529 17.1615C29.6264 17.1684 29.6 17.1755 29.573 17.1813ZM29.7384 17.1374C29.774 17.1261 29.8073 17.1146 29.838 17.1028C29.8053 17.1153 29.7721 17.1268 29.7384 17.1374Z" fill="#B23200"/>
</svg>
