<svg width="101" height="30" viewBox="0 0 101 30" fill="none" xmlns="http://www.w3.org/2000/svg">
<path d="M67.1169 23.7305V30C66.8756 30 66.8098 30 66.5686 30C62.2258 30 58.7165 26.3523 58.7165 21.8154V20.8807C58.7165 16.3666 62.2258 12.7189 66.5686 12.7189C70.9113 12.7189 74.4206 16.3666 74.4206 20.8807V23.7305H67.1169Z" fill="#FA4D09"/>
<path d="M84.4191 13.1064V12.3313H89.9024V29.43H84.4191V28.6549C83.6734 28.9057 82.8838 29.0425 82.0503 29.0425C77.7075 29.0425 74.1982 25.3947 74.1982 20.8807C74.1982 16.3666 77.7075 12.7189 82.0503 12.7189C82.8838 12.7189 83.6734 12.8556 84.4191 13.1064ZM82.0503 18.4184C80.7343 18.4184 79.6815 19.5128 79.6815 20.8807C79.6815 22.2486 80.7343 23.3429 82.0503 23.3429C83.3663 23.3429 84.4191 22.2486 84.4191 20.8807C84.4191 19.5128 83.3663 18.4184 82.0503 18.4184Z" fill="#FA4D09"/>
<path d="M92.0344 14.2463V9.4815H97.5177V14.2463H100.435V19.9459H97.5177V20.8807C97.5177 22.2258 98.6143 23.3657 99.8865 23.3657C100.128 23.3657 100.194 23.3657 100.435 23.3657V29.0653C100.194 29.0653 100.128 29.0653 99.8865 29.0653C95.5656 29.0653 92.0344 25.3947 92.0344 20.8807V19.9459H90.8061V14.2463H92.0344Z" fill="#FA4D09"/>
<path d="M5.45178 6.25976L6.72449 18.5454L12.1763 17.9352L12.7633 23.6021L1.85975 24.8225L0 6.86995L5.45178 6.25976Z" fill="#004332"/>
<path d="M19.3666 7.9584C23.6844 7.47513 27.5493 10.7114 28.0142 15.1995C28.4792 19.6876 25.3657 23.7049 21.0479 24.1882C16.7301 24.6715 12.8653 21.4352 12.4003 16.9471C11.9354 12.459 15.0488 8.44168 19.3666 7.9584ZM19.9537 13.6252C18.6452 13.7717 17.7112 14.9769 17.8521 16.3369C17.993 17.6969 19.1525 18.6678 20.4609 18.5214C21.7693 18.3749 22.7033 17.1697 22.5624 15.8097C22.4216 14.4497 21.2621 13.4788 19.9537 13.6252Z" fill="#004332"/>
<path d="M40.4725 7.93498L37.149 12.4802C36.6636 12.053 36.0225 11.8267 35.3464 11.9024C34.038 12.0488 33.104 13.254 33.2449 14.614C33.3858 15.9741 34.5452 16.945 35.8536 16.7985C36.5297 16.7228 37.1097 16.3598 37.4966 15.835L41.6748 19.5406C40.4052 21.1273 38.5778 22.2261 36.4407 22.4653C32.1229 22.9486 28.258 19.7124 27.7931 15.2242C27.3282 10.7361 30.4416 6.71882 34.7594 6.23555C36.8965 5.99635 38.9071 6.66559 40.4725 7.93498Z" fill="#004332"/>
<path d="M49.8853 4.93238L49.8054 4.1617L55.2572 3.5515L57.0183 20.552L51.5665 21.1622L51.4867 20.3915C50.7711 20.7238 50.0001 20.9477 49.1715 21.0404C44.8536 21.5237 40.9888 18.2875 40.5239 13.7993C40.0589 9.31122 43.1724 5.29392 47.4902 4.81065C48.3188 4.7179 49.118 4.76603 49.8853 4.93238ZM48.0772 10.4775C46.7688 10.6239 45.8348 11.8291 45.9756 13.1891C46.1165 14.5492 47.276 15.5201 48.5844 15.3736C49.8928 15.2272 50.8269 14.022 50.686 12.6619C50.5451 11.3019 49.3856 10.331 48.0772 10.4775Z" fill="#004332"/>
<path d="M61.3794 0L62.6521 12.2857L66.2939 11.8781L66.8809 17.5449L57.7874 18.5627L55.9276 0.610196L61.3794 0Z" fill="#004332"/>
</svg>
