<svg width="24" height="25" viewBox="0 0 24 25" fill="none" xmlns="http://www.w3.org/2000/svg">
<path d="M12 12.8606C14.1374 12.8606 16.1772 13.7831 17.6733 15.4081C19.1679 17.0314 20 19.2236 20 21.5H18.5455C18.5455 19.5867 17.8448 17.7608 16.6117 16.4215C15.3801 15.0838 13.7203 14.3417 12 14.3417C10.2797 14.3417 8.61993 15.0838 7.38826 16.4215C6.15519 17.7608 5.45455 19.5867 5.45455 21.5H4C4 19.2236 4.83214 17.0314 6.3267 15.4081C7.82284 13.7831 9.86257 12.8606 12 12.8606Z" fill="#171719"/>
<path fill-rule="evenodd" clip-rule="evenodd" d="M12.0388 3.5C14.4486 3.50026 16.4025 5.48941 16.4025 7.94311C16.4025 10.3968 14.4486 12.386 12.0388 12.3862C9.62886 12.3862 7.67519 10.397 7.67519 7.94311C7.67519 5.48925 9.62886 3.5 12.0388 3.5ZM12.0388 4.98104C10.4322 4.98104 9.12973 6.3072 9.12973 7.94311C9.12973 9.57902 10.4322 10.9052 12.0388 10.9052C13.6453 10.9049 14.9479 9.57886 14.9479 7.94311C14.9479 6.30736 13.6453 4.9813 12.0388 4.98104Z" fill="#171719"/>
</svg>
