<svg width="24" height="24" viewBox="0 0 24 24" fill="none" xmlns="http://www.w3.org/2000/svg">
<mask id="mask0_2195_27653" style="mask-type:alpha" maskUnits="userSpaceOnUse" x="0" y="0" width="24" height="24">
<rect width="24" height="24" fill="#D9D9D9"/>
</mask>
<g mask="url(#mask0_2195_27653)">
<path d="M12.0002 21.5002C10.8207 21.5002 9.71559 21.2771 8.68492 20.8309C7.65409 20.3848 6.75534 19.7783 5.98867 19.0117C5.22201 18.245 4.61559 17.3463 4.16942 16.3154C3.72326 15.2848 3.50017 14.1797 3.50017 13.0002C3.50017 11.8207 3.72326 10.7156 4.16942 9.68492C4.61559 8.65409 5.22201 7.75534 5.98867 6.98867C6.75534 6.22201 7.65409 5.61559 8.68492 5.16942C9.71559 4.72326 10.8207 4.50017 12.0002 4.50017C13.1797 4.50017 14.2848 4.72326 15.3154 5.16942C16.3463 5.61559 17.245 6.22201 18.0117 6.98867C18.7783 7.75534 19.3848 8.65409 19.8309 9.68492C20.2771 10.7156 20.5002 11.8207 20.5002 13.0002C20.5002 14.1797 20.2771 15.2848 19.8309 16.3154C19.3848 17.3463 18.7783 18.245 18.0117 19.0117C17.245 19.7783 16.3463 20.3848 15.3154 20.8309C14.2848 21.2771 13.1797 21.5002 12.0002 21.5002ZM14.9732 17.0272L16.0272 15.9732L12.7502 12.6964V8.00017H11.2502V13.3039L14.9732 17.0272ZM5.75392 2.88867L6.80792 3.94242L2.94242 7.80792L1.88867 6.75392L5.75392 2.88867ZM18.2464 2.88867L22.1117 6.75392L21.0579 7.80792L17.1924 3.94242L18.2464 2.88867ZM12.0002 20.0002C13.9438 20.0002 15.5964 19.3194 16.9579 17.9579C18.3194 16.5964 19.0002 14.9438 19.0002 13.0002C19.0002 11.0565 18.3194 9.40392 16.9579 8.04242C15.5964 6.68092 13.9438 6.00017 12.0002 6.00017C10.0565 6.00017 8.40392 6.68092 7.04242 8.04242C5.68092 9.40392 5.00017 11.0565 5.00017 13.0002C5.00017 14.9438 5.68092 16.5964 7.04242 17.9579C8.40392 19.3194 10.0565 20.0002 12.0002 20.0002Z" fill="#787882"/>
</g>
</svg>
