<svg width="24" height="24" viewBox="0 0 24 24" fill="none" xmlns="http://www.w3.org/2000/svg">
<path d="M16.9556 8.23306C16.9556 6.71257 15.723 5.47998 14.2025 5.47998H9.79753C8.37215 5.47998 7.19951 6.56316 7.05841 7.9513L7.04443 8.23306V17.8699L10.6202 15.5481L10.7805 15.4524C11.5395 15.0351 12.4605 15.0351 13.2195 15.4524L13.3798 15.5481L16.9556 17.8699V8.23306ZM18.6074 19.2906L18.5988 19.4185C18.5172 19.9975 17.8888 20.3386 17.3589 20.0918L17.247 20.0294L12.4796 16.9332C12.1878 16.7438 11.8122 16.7438 11.5204 16.9332L6.75299 20.0294L6.64115 20.0918C6.11115 20.3386 5.48277 19.9975 5.40118 19.4185L5.39258 19.2906V8.23306C5.39258 5.80028 7.36474 3.82813 9.79753 3.82812H14.2025C16.6353 3.82812 18.6074 5.80028 18.6074 8.23306V19.2906Z" fill="#787882"/>
</svg>
