<svg width="24" height="24" viewBox="0 0 24 24" fill="none" xmlns="http://www.w3.org/2000/svg">
<mask id="mask0_687_22225" style="mask-type:alpha" maskUnits="userSpaceOnUse" x="0" y="0" width="24" height="24">
<rect width="24" height="24" fill="#D9D9D9"/>
</mask>
<g mask="url(#mask0_687_22225)">
<path d="M11.9947 7.1999C12.2482 7.1999 12.4624 7.11415 12.6374 6.94265C12.8124 6.77115 12.8999 6.55865 12.8999 6.30515C12.8999 6.05165 12.8142 5.8374 12.6427 5.6624C12.4712 5.4874 12.2587 5.3999 12.0052 5.3999C11.7517 5.3999 11.5374 5.48565 11.3624 5.65715C11.1874 5.82865 11.0999 6.04115 11.0999 6.29465C11.0999 6.54815 11.1857 6.7624 11.3572 6.9374C11.5287 7.1124 11.7412 7.1999 11.9947 7.1999ZM11.0999 14.9999H12.8999V8.3999H11.0999V14.9999ZM2.3999 21.5999V4.1999C2.3999 3.7049 2.57615 3.28115 2.92865 2.92865C3.28115 2.57615 3.7049 2.3999 4.1999 2.3999H19.7999C20.2949 2.3999 20.7187 2.57615 21.0712 2.92865C21.4237 3.28115 21.5999 3.7049 21.5999 4.1999V16.1999C21.5999 16.6949 21.4237 17.1187 21.0712 17.4712C20.7187 17.8237 20.2949 17.9999 19.7999 17.9999H5.9999L2.3999 21.5999ZM5.2499 16.1999H19.7999V4.1999H4.1999V17.2499L5.2499 16.1999Z" fill="#646464"/>
</g>
</svg>
