<svg width="19" height="19" viewBox="0 0 19 19" fill="none" xmlns="http://www.w3.org/2000/svg">
<path d="M13 3.25C14.1046 3.25 15 4.14543 15 5.25V16.25C15 17.3546 14.1046 18.25 13 18.25H2C0.895432 18.25 8.0532e-09 17.3546 0 16.25V5.25C1.28853e-07 4.14543 0.89543 3.25 2 3.25H13ZM2 4.75C1.72386 4.75 1.5 4.97386 1.5 5.25V16.25L1.50977 16.3506C1.55629 16.5786 1.75829 16.75 2 16.75H13L13.1006 16.7402C13.2961 16.7003 13.4503 16.5461 13.4902 16.3506L13.5 16.25V5.25C13.5 5.00829 13.3286 4.80629 13.1006 4.75977L13 4.75H2ZM8.25 10H11.5V11.5H8.25V14.75H6.75V11.5H3.5V10H6.75V6.75H8.25V10ZM17 0C17.6904 1.07377e-08 18.25 0.559645 18.25 1.25V12.75C18.25 13.1642 17.9142 13.5 17.5 13.5C17.0858 13.5 16.75 13.1642 16.75 12.75V1.5H5.5C5.08579 1.5 4.75 1.16421 4.75 0.75C4.75 0.335786 5.08579 0 5.5 0H17Z" fill="#171719"/>
</svg>
