<svg width="24" height="24" viewBox="0 0 24 24" fill="none" xmlns="http://www.w3.org/2000/svg">
<path d="M9.99219 7.74609C10.4064 7.74609 10.7422 8.08188 10.7422 8.49609V16.4961C10.7422 16.9103 10.4064 17.2461 9.99219 17.2461C9.57797 17.2461 9.24219 16.9103 9.24219 16.4961V8.49609C9.24219 8.08188 9.57797 7.74609 9.99219 7.74609Z" fill="#171719"/>
<path d="M13.9922 7.74609C14.4064 7.74609 14.7422 8.08188 14.7422 8.49609V16.4961C14.7422 16.9103 14.4064 17.2461 13.9922 17.2461C13.578 17.2461 13.2422 16.9103 13.2422 16.4961V8.49609C13.2422 8.08188 13.578 7.74609 13.9922 7.74609Z" fill="#171719"/>
<path fill-rule="evenodd" clip-rule="evenodd" d="M14.9922 4.49316H20V5.99316H18.4922V18.4961C18.4922 19.6007 17.5968 20.4961 16.4922 20.4961H7.49219C6.38762 20.4961 5.49219 19.6007 5.49219 18.4961V5.99316H4V4.49316H8.99219V3H14.9922V4.49316ZM6.99219 18.4961L7.00195 18.5967C7.04848 18.8246 7.25047 18.9961 7.49219 18.9961H16.4922L16.5928 18.9863C16.7883 18.9464 16.9425 18.7922 16.9824 18.5967L16.9922 18.4961V5.99609H6.99219V18.4961Z" fill="#171719"/>
</svg>
