<svg width="174" height="104" viewBox="0 0 174 104" fill="none" xmlns="http://www.w3.org/2000/svg">
<g style="mix-blend-mode:color-dodge">
<path d="M37.0108 78.261L41.6616 102.272C40.7012 102.458 40.4392 102.509 39.4788 102.695C22.1909 106.043 5.51495 94.7793 2.14945 77.4041L1.45605 73.8243C-1.89254 56.5364 9.37153 39.8604 26.6594 36.5118C43.9473 33.1632 60.6233 44.4273 63.9719 61.7152L66.0859 72.6293L37.0108 78.261Z" fill="#FA4D09" fill-opacity="0.5"/>
<path d="M98.0071 24.2321L97.4321 21.2634L119.26 17.0354L131.944 82.5198L110.116 86.7479L109.541 83.7792C106.759 85.3147 103.717 86.4474 100.399 87.0901C83.111 90.4387 66.435 79.1746 63.0864 61.8867C59.7379 44.5988 71.0019 27.9229 88.2898 24.5743C91.6077 23.9316 94.8524 23.8466 98.0071 24.2321ZM92.5178 46.4024C87.2791 47.4171 83.8999 52.4199 84.9146 57.6587C85.9293 62.8974 90.9321 66.2766 96.1709 65.2619C101.41 64.2472 104.789 59.2444 103.774 54.0057C102.759 48.7669 97.7566 45.3877 92.5178 46.4024Z" fill="#FA4D09" fill-opacity="0.5"/>
<path d="M129.168 22.7258L125.633 4.47743L147.461 0.249405L150.996 18.4977L162.609 16.2484L166.837 38.0766L155.224 40.3259L155.917 43.9057C156.915 49.0571 162.126 52.5772 167.191 51.5963C168.151 51.4102 168.413 51.3595 169.373 51.1735L173.601 73.0016C172.641 73.1876 172.379 73.2384 171.419 73.4244C154.218 76.7561 137.438 65.4216 134.089 48.1337L133.396 44.5539L128.506 45.501L124.278 23.6728L129.168 22.7258Z" fill="#FA4D09" fill-opacity="0.5"/>
</g>
</svg>
