<svg width="24" height="25" viewBox="0 0 24 25" fill="none" xmlns="http://www.w3.org/2000/svg">
<path d="M12 2.5C17.5228 2.5 22 6.97715 22 12.5C22 18.0228 17.5228 22.5 12 22.5C6.47715 22.5 2 18.0228 2 12.5C2 6.97715 6.47715 2.5 12 2.5ZM12 4C7.30558 4 3.5 7.80558 3.5 12.5C3.5 17.1944 7.30558 21 12 21C16.6944 21 20.5 17.1944 20.5 12.5C20.5 7.80558 16.6944 4 12 4ZM12 15.25C12.4142 15.25 12.75 15.5858 12.75 16C12.75 16.4142 12.4142 16.75 12 16.75C11.5858 16.75 11.25 16.4142 11.25 16C11.25 15.5858 11.5858 15.25 12 15.25ZM12.75 14.25H11.25V8.25H12.75V14.25Z" fill="#787882"/>
</svg>
