<svg width="20" height="20" viewBox="0 0 20 20" fill="none" xmlns="http://www.w3.org/2000/svg">
<path d="M10 0C15.5228 0 20 4.47715 20 10C20 15.5228 15.5228 20 10 20C4.47715 20 0 15.5228 0 10C0 4.47715 4.47715 0 10 0ZM10 1.5C5.30558 1.5 1.5 5.30558 1.5 10C1.5 14.6944 5.30558 18.5 10 18.5C14.6944 18.5 18.5 14.6944 18.5 10C18.5 5.30558 14.6944 1.5 10 1.5ZM10 12.75C10.4142 12.75 10.75 13.0858 10.75 13.5C10.75 13.9142 10.4142 14.25 10 14.25C9.58583 14.25 9.25 13.9142 9.25 13.5C9.25 13.0858 9.58583 12.75 10 12.75ZM10.75 11.75H9.25V5.75H10.75V11.75Z" fill="#787882"/>
</svg>
