<svg width="20" height="20" viewBox="0 0 20 20" fill="none" xmlns="http://www.w3.org/2000/svg">
<path d="M9.9987 17.1577L9.07891 16.3308C7.69752 15.0776 6.55516 14.0008 5.65182 13.1002C4.74849 12.1995 4.03266 11.3979 3.50432 10.6954C2.97599 9.99306 2.60689 9.35229 2.39703 8.77313C2.18703 8.1941 2.08203 7.60653 2.08203 7.01042C2.08203 5.82778 2.48078 4.83764 3.27828 4.04C4.07592 3.2425 5.06606 2.84375 6.2487 2.84375C6.9762 2.84375 7.6637 3.01389 8.3112 3.35417C8.9587 3.69444 9.5212 4.18243 9.9987 4.81813C10.4762 4.18243 11.0387 3.69444 11.6862 3.35417C12.3337 3.01389 13.0212 2.84375 13.7487 2.84375C14.9313 2.84375 15.9215 3.2425 16.7191 4.04C17.5166 4.83764 17.9154 5.82778 17.9154 7.01042C17.9154 7.60653 17.8104 8.1941 17.6004 8.77313C17.3905 9.35229 17.0214 9.99306 16.4931 10.6954C15.9647 11.3979 15.2502 12.1995 14.3495 13.1002C13.449 14.0008 12.3053 15.0776 10.9185 16.3308L9.9987 17.1577ZM9.9987 15.4688C11.332 14.269 12.4293 13.2407 13.2904 12.3838C14.1515 11.5269 14.832 10.7826 15.332 10.1506C15.832 9.51868 16.1793 8.9575 16.3737 8.46708C16.5681 7.97681 16.6654 7.49125 16.6654 7.01042C16.6654 6.17708 16.3876 5.48264 15.832 4.92708C15.2765 4.37153 14.582 4.09375 13.7487 4.09375C13.0906 4.09375 12.4824 4.28042 11.9241 4.65375C11.3659 5.02722 10.9239 5.54674 10.5981 6.21229H9.39932C9.06807 5.54132 8.62467 5.02049 8.06911 4.64979C7.51356 4.2791 6.90675 4.09375 6.2487 4.09375C5.42064 4.09375 4.72752 4.37153 4.16932 4.92708C3.61113 5.48264 3.33203 6.17708 3.33203 7.01042C3.33203 7.49125 3.42925 7.97681 3.6237 8.46708C3.81814 8.9575 4.16536 9.51868 4.66536 10.1506C5.16536 10.7826 5.84592 11.5256 6.70703 12.3798C7.56814 13.234 8.66536 14.2636 9.9987 15.4688Z" fill="#92929B"/>
</svg>
