<svg width="24" height="24" viewBox="0 0 24 24" fill="none" xmlns="http://www.w3.org/2000/svg">
<path d="M9.327 14.3463H18.673L15.5693 10.2693L13.1923 13.3077L11.623 11.3655L9.327 14.3463ZM8.30775 18C7.80258 18 7.375 17.825 7.025 17.475C6.675 17.125 6.5 16.6974 6.5 16.1923V4.80775C6.5 4.30258 6.675 3.875 7.025 3.525C7.375 3.175 7.80258 3 8.30775 3H19.6923C20.1974 3 20.625 3.175 20.975 3.525C21.325 3.875 21.5 4.30258 21.5 4.80775V16.1923C21.5 16.6974 21.325 17.125 20.975 17.475C20.625 17.825 20.1974 18 19.6923 18H8.30775ZM8.30775 16.5H19.6923C19.7693 16.5 19.8398 16.4679 19.9038 16.4038C19.9679 16.3398 20 16.2692 20 16.1923V4.80775C20 4.73075 19.9679 4.66025 19.9038 4.59625C19.8398 4.53208 19.7693 4.5 19.6923 4.5H8.30775C8.23075 4.5 8.16025 4.53208 8.09625 4.59625C8.03208 4.66025 8 4.73075 8 4.80775V16.1923C8 16.2692 8.03208 16.3398 8.09625 16.4038C8.16025 16.4679 8.23075 16.5 8.30775 16.5ZM4.80775 21.5C4.30258 21.5 3.875 21.325 3.525 20.975C3.175 20.625 3 20.1974 3 19.6923V6.80775H4.5V19.6923C4.5 19.7693 4.53208 19.8398 4.59625 19.9038C4.66025 19.9679 4.73075 20 4.80775 20H17.6923V21.5H4.80775Z" fill="#FA4D09"/>
</svg>
