<svg width="10" height="10" viewBox="0 0 10 10" fill="none" xmlns="http://www.w3.org/2000/svg">
<path d="M5.4165 3.74935L4.58317 3.74935L4.58317 2.91602L5.4165 2.91602L5.4165 3.74935ZM5.4165 7.08268L4.58317 7.08268L4.58317 4.58268L5.4165 4.58268L5.4165 7.08268ZM5.004 9.16602C7.304 9.16602 9.1665 7.29935 9.1665 4.99935C9.1665 2.69935 7.304 0.832682 5.004 0.832682C2.69984 0.832682 0.83317 2.69935 0.833169 4.99935C0.833169 7.29935 2.69984 9.16602 5.004 9.16602ZM4.99984 1.66602C6.8415 1.66602 8.33317 3.15768 8.33317 4.99935C8.33317 6.84102 6.8415 8.33268 4.99984 8.33268C3.15817 8.33268 1.6665 6.84102 1.6665 4.99935C1.6665 3.15768 3.15817 1.66602 4.99984 1.66602Z" fill="#92929B"/>
</svg>
