<svg width="16" height="17" viewBox="0 0 16 17" fill="none" xmlns="http://www.w3.org/2000/svg">
<path d="M10.668 7.99967V8.99967H5.33464V7.99967H10.668Z" fill="#2E2E32"/>
<path d="M6.9349 5.83301V6.83301H5.33464C4.41416 6.83301 3.66797 7.5792 3.66797 8.49967C3.66797 9.42015 4.41416 10.1663 5.33464 10.1663H6.9349V11.1663H5.33464C3.86188 11.1663 2.66797 9.97243 2.66797 8.49967C2.66797 7.02692 3.86188 5.83301 5.33464 5.83301H6.9349ZM10.8053 5.83626C12.2143 5.90775 13.3346 7.07298 13.3346 8.49967C13.3346 9.97243 12.1407 11.1663 10.668 11.1663H9.06771V10.1663H10.668C11.5884 10.1663 12.3346 9.42015 12.3346 8.49967C12.3346 7.5792 11.5884 6.83301 10.668 6.83301H9.06771V5.83301H10.668L10.8053 5.83626Z" fill="#2E2E32"/>
</svg>
