<svg width="330" height="118" viewBox="0 0 330 118" fill="none" xmlns="http://www.w3.org/2000/svg">
<g style="mix-blend-mode:color-dodge">
<path d="M27.5243 29.5757L33.7747 87.6224L60.549 84.7393L63.432 111.514L9.88341 117.28L0.75 32.4587L27.5243 29.5757Z" fill="#FA4D09" fill-opacity="0.6"/>
<path d="M95.8616 37.6014C117.067 35.318 136.047 50.6084 138.331 71.8137C140.614 93.0189 125.324 112 104.119 114.283C82.9133 116.566 63.9327 101.276 61.6493 80.0706C59.3659 58.8654 74.6564 39.8847 95.8616 37.6014ZM98.7446 64.3757C92.3188 65.0676 87.7317 70.7618 88.4236 77.1876C89.1155 83.6134 94.8097 88.2006 101.236 87.5086C107.661 86.8167 112.248 81.1225 111.557 74.6967C110.865 68.2709 105.17 63.6837 98.7446 64.3757Z" fill="#FA4D09" fill-opacity="0.6"/>
<path d="M199.515 37.4907L183.193 58.9659C180.809 56.9475 177.66 55.8781 174.34 56.2356C167.914 56.9276 163.327 62.6218 164.019 69.0476C164.711 75.4734 170.405 80.0605 176.831 79.3686C180.151 79.0111 183 77.296 184.9 74.8163L205.419 92.3244C199.184 99.8211 190.21 105.013 179.714 106.143C158.509 108.426 139.528 93.1358 137.245 71.9306C134.961 50.7254 150.252 31.7447 171.457 29.4614C181.953 28.3312 191.827 31.4932 199.515 37.4907Z" fill="#FA4D09" fill-opacity="0.6"/>
<path d="M245.742 23.3042L245.35 19.6629L272.124 16.7799L280.773 97.1028L253.999 99.9858L253.607 96.3445C250.092 97.9146 246.306 98.9724 242.236 99.4106C221.031 101.694 202.05 86.4035 199.767 65.1983C197.484 43.9931 212.774 25.0124 233.979 22.729C238.049 22.2908 241.974 22.5183 245.742 23.3042ZM236.862 49.5033C230.436 50.1953 225.849 55.8895 226.541 62.3153C227.233 68.7411 232.927 73.3282 239.353 72.6363C245.779 71.9444 250.366 66.2502 249.674 59.8244C248.982 53.3985 243.288 48.8114 236.862 49.5033Z" fill="#FA4D09" fill-opacity="0.6"/>
<path d="M302.191 0L308.441 58.0466L326.326 56.1208L329.209 82.8951L284.55 87.7039L275.416 2.88302L302.191 0Z" fill="#FA4D09" fill-opacity="0.6"/>
</g>
</svg>
