<svg width="22" height="22" viewBox="0 0 22 22" fill="none" xmlns="http://www.w3.org/2000/svg">
<path d="M11.75 2.0332C16.1222 2.394 19.605 5.87785 19.9658 10.25H22V11.75H19.9658C19.605 16.1221 16.1221 19.605 11.75 19.9658V22H10.25V19.9658C5.87787 19.605 2.39501 16.1221 2.03418 11.75H0V10.25H2.03418C2.39501 5.87785 5.87784 2.394 10.25 2.0332V0H11.75V2.0332ZM10.373 3.52832C6.73243 3.82891 3.82996 6.73197 3.5293 10.373L3.47656 11L3.5293 11.627C3.82994 15.2678 6.73223 18.1701 10.373 18.4707L11 18.5225L11.627 18.4707C15.2678 18.1701 18.1701 15.2678 18.4707 11.627L18.5225 11L18.4707 10.373C18.17 6.73197 15.2676 3.82891 11.627 3.52832L11 3.47559L10.373 3.52832ZM11 7C13.2091 7 15 8.79086 15 11C15 13.2091 13.2091 15 11 15C8.79086 15 7 13.2091 7 11C7 8.79086 8.79086 7 11 7ZM11 8.5C9.61929 8.5 8.5 9.61929 8.5 11C8.5 12.3807 9.61929 13.5 11 13.5C12.3807 13.5 13.5 12.3807 13.5 11C13.5 9.61929 12.3807 8.5 11 8.5Z" fill="#171719"/>
</svg>
