<svg width="20" height="20" viewBox="0 0 20 20" fill="none" xmlns="http://www.w3.org/2000/svg">
<path d="M11.7107 12.0495H4.8731V10.8039H11.7107V12.0495Z" fill="#92929B"/>
<path d="M15.1295 9.5583H4.8731V8.31272H15.1295V9.5583Z" fill="#92929B"/>
<path d="M15.1295 7.06714H4.8731V5.82155H15.1295V7.06714Z" fill="#92929B"/>
<path fill-rule="evenodd" clip-rule="evenodd" d="M15.9842 2.5C17.2823 2.5 18.3346 3.52239 18.3346 4.78357V13.0875C18.3346 14.2698 17.4098 15.2419 16.2246 15.3589L15.9842 15.371H12.113L10.0013 18.3333L7.88959 15.371H4.0184C2.80146 15.371 1.8009 14.4725 1.68049 13.321L1.66797 13.0875V4.78357C1.66797 3.52239 2.72029 2.5 4.0184 2.5H15.9842ZM4.0184 3.74558C3.42835 3.74558 2.95002 4.2103 2.95002 4.78357V13.0875L2.95586 13.1937C3.01064 13.717 3.46527 14.1254 4.0184 14.1254H8.56066L10.0013 16.1463L11.4419 14.1254H15.9842L16.0936 14.1198C16.6322 14.0665 17.0526 13.6248 17.0526 13.0875V4.78357L17.0467 4.67734C16.992 4.15399 16.5373 3.74558 15.9842 3.74558H4.0184Z" fill="#92929B"/>
</svg>
