<svg width="20" height="21" viewBox="0 0 20 21" fill="none" xmlns="http://www.w3.org/2000/svg">
<path d="M11.7107 12.5495H4.8731V11.3039H11.7107V12.5495Z" fill="#171719"/>
<path d="M15.1295 10.0583H4.8731V8.81272H15.1295V10.0583Z" fill="#171719"/>
<path d="M15.1295 7.56714H4.8731V6.32155H15.1295V7.56714Z" fill="#171719"/>
<path fill-rule="evenodd" clip-rule="evenodd" d="M15.9842 3C17.2823 3 18.3346 4.02239 18.3346 5.28357V13.5875C18.3346 14.7698 17.4098 15.7419 16.2246 15.8589L15.9842 15.871H12.113L10.0013 18.8333L7.88959 15.871H4.0184C2.80146 15.871 1.8009 14.9725 1.68049 13.821L1.66797 13.5875V5.28357C1.66797 4.02239 2.72029 3 4.0184 3H15.9842ZM4.0184 4.24558C3.42835 4.24558 2.95002 4.7103 2.95002 5.28357V13.5875L2.95586 13.6937C3.01064 14.217 3.46527 14.6254 4.0184 14.6254H8.56066L10.0013 16.6463L11.4419 14.6254H15.9842L16.0936 14.6198C16.6322 14.5665 17.0526 14.1248 17.0526 13.5875V5.28357L17.0467 5.17734C16.992 4.65399 16.5373 4.24558 15.9842 4.24558H4.0184Z" fill="#171719"/>
</svg>
