<svg width="24" height="24" viewBox="0 0 24 24" fill="none" xmlns="http://www.w3.org/2000/svg">
<path d="M12.75 3.0332C17.1222 3.394 20.605 6.87785 20.9658 11.25H23V12.75H20.9658C20.605 17.1221 17.1221 20.605 12.75 20.9658V23H11.25V20.9658C6.87787 20.605 3.39501 17.1221 3.03418 12.75H1V11.25H3.03418C3.39501 6.87785 6.87784 3.394 11.25 3.0332V1H12.75V3.0332ZM11.373 4.52832C7.73243 4.82891 4.82996 7.73197 4.5293 11.373L4.47656 12L4.5293 12.627C4.82994 16.2678 7.73223 19.1701 11.373 19.4707L12 19.5225L12.627 19.4707C16.2678 19.1701 19.1701 16.2678 19.4707 12.627L19.5225 12L19.4707 11.373C19.17 7.73197 16.2676 4.82891 12.627 4.52832L12 4.47559L11.373 4.52832ZM12 8C14.2091 8 16 9.79086 16 12C16 14.2091 14.2091 16 12 16C9.79086 16 8 14.2091 8 12C8 9.79086 9.79086 8 12 8ZM12 9.5C10.6193 9.5 9.5 10.6193 9.5 12C9.5 13.3807 10.6193 14.5 12 14.5C13.3807 14.5 14.5 13.3807 14.5 12C14.5 10.6193 13.3807 9.5 12 9.5Z" fill="#171719"/>
</svg>
