<svg width="25" height="24" viewBox="0 0 25 24" fill="none" xmlns="http://www.w3.org/2000/svg">
<mask id="mask0_1516_18858" style="mask-type:alpha" maskUnits="userSpaceOnUse" x="0" y="0" width="25" height="24">
<rect x="0.53125" width="24" height="24" fill="#D9D9D9"/>
</mask>
<g mask="url(#mask0_1516_18858)">
<path d="M3.839 20.5C3.33383 20.5 2.90625 20.325 2.55625 19.975C2.20625 19.625 2.03125 19.1974 2.03125 18.6923V7.30775C2.03125 6.80258 2.20625 6.375 2.55625 6.025C2.90625 5.675 3.33383 5.5 3.839 5.5H6.89275L8.74275 3.5H14.339V5H9.39675L7.562 7H3.839C3.74917 7 3.67542 7.02883 3.61775 7.0865C3.56008 7.14417 3.53125 7.21792 3.53125 7.30775V18.6923C3.53125 18.7821 3.56008 18.8558 3.61775 18.9135C3.67542 18.9712 3.74917 19 3.839 19H19.2235C19.3133 19 19.3871 18.9712 19.4447 18.9135C19.5024 18.8558 19.5312 18.7821 19.5312 18.6923V10.1923H21.0312V18.6923C21.0312 19.1974 20.8563 19.625 20.5063 19.975C20.1562 20.325 19.7287 20.5 19.2235 20.5H3.839ZM19.5312 7V5H17.5312V3.5H19.5312V1.5H21.0312V3.5H23.0312V5H21.0312V7H19.5312ZM11.5312 17.1152C12.6788 17.1152 13.6515 16.7163 14.4495 15.9183C15.2475 15.1202 15.6465 14.1475 15.6465 13C15.6465 11.8525 15.2475 10.8798 14.4495 10.0818C13.6515 9.28375 12.6788 8.88475 11.5312 8.88475C10.3837 8.88475 9.411 9.28375 8.613 10.0818C7.815 10.8798 7.416 11.8525 7.416 13C7.416 14.1475 7.815 15.1202 8.613 15.9183C9.411 16.7163 10.3837 17.1152 11.5312 17.1152ZM11.5312 15.6155C10.7928 15.6155 10.1722 15.3642 9.66975 14.8615C9.16708 14.359 8.91575 13.7385 8.91575 13C8.91575 12.2615 9.16708 11.641 9.66975 11.1385C10.1722 10.6358 10.7928 10.3845 11.5312 10.3845C12.2697 10.3845 12.8903 10.6358 13.3928 11.1385C13.8954 11.641 14.1468 12.2615 14.1468 13C14.1468 13.7385 13.8954 14.359 13.3928 14.8615C12.8903 15.3642 12.2697 15.6155 11.5312 15.6155Z" fill="#787882"/>
</g>
</svg>
