<svg width="76" height="76" viewBox="0 0 76 76" fill="none" xmlns="http://www.w3.org/2000/svg">
<path d="M75.9726 36.5576C75.6792 28.8331 73.037 21.3818 68.3986 15.1981C63.7602 9.01435 57.3462 4.39228 50.0126 1.94866C42.6789 -0.494952 34.7745 -0.643875 27.354 1.52177C19.9335 3.6874 13.35 8.0646 8.48193 14.0692C3.61388 20.0739 0.692871 27.4203 0.108693 35.1282C-0.475486 42.8362 1.30496 50.539 5.21242 57.2087C9.11989 63.8784 14.9685 69.1978 21.9778 72.4571C28.9872 75.7163 36.8238 76.7604 44.4419 75.45L38 38L75.9726 36.5576Z" fill="#FA4D09"/>
<path d="M54.6331 18.8156C55.8917 18.9627 56.8588 20.0428 56.8392 21.3371C56.8298 21.9499 56.5995 22.5065 56.2269 22.9357L56.1536 23.0588C56.1069 23.1411 56.0371 23.2505 55.9651 23.3683C56.0122 23.471 56.0634 23.5871 56.1116 23.717C56.1131 23.7195 56.1149 23.722 56.1165 23.7248C56.1242 23.7381 56.1368 23.7586 56.1478 23.7775L56.2366 23.9367L56.2884 24.0324L56.3314 24.132L56.4144 24.3449C56.4857 24.5485 56.5238 24.7151 56.5306 24.7424C56.8655 26.0818 56.0507 27.4397 54.7112 27.7746C53.4314 28.0945 52.1387 27.364 51.7337 26.1301C51.7124 26.0923 51.6878 26.0498 51.6624 26.0021L51.5462 25.7697L51.47 25.6066L51.4183 25.4347C51.4245 25.4551 51.4481 25.4976 51.2894 25.1916C51.1892 24.9985 50.9324 24.5165 50.8372 23.8703L50.8069 23.5842C50.7755 23.0772 50.8008 22.2408 51.2562 21.4806L51.5745 20.9699C51.6486 20.8548 51.7082 20.7618 51.804 20.5929L51.9671 20.3156C52.0236 20.2233 52.0812 20.132 52.139 20.047C52.1911 19.9704 52.2809 19.8437 52.3929 19.7131C52.4429 19.6547 52.5561 19.5247 52.7191 19.3888C52.8 19.3214 52.9509 19.204 53.1605 19.0929C53.3397 18.998 53.7776 18.79 54.3773 18.799L54.6331 18.8156ZM54.3021 23.799C54.3876 23.8003 54.4697 23.7958 54.5482 23.7892C54.4671 23.7959 54.3851 23.8002 54.3021 23.799ZM54.5921 23.7843C54.6496 23.7785 54.7049 23.771 54.7581 23.7619C54.7033 23.7711 54.6481 23.7787 54.5921 23.7843ZM54.8646 23.7414C54.9028 23.7331 54.9394 23.7234 54.9749 23.714C54.9383 23.7236 54.9018 23.7334 54.8646 23.7414ZM55.0931 23.6808C55.1423 23.6652 55.1883 23.6493 55.2308 23.633C55.1855 23.6503 55.1396 23.6661 55.0931 23.6808Z" fill="#B23200"/>
<path d="M40.6331 18.8156C41.8917 18.9627 42.8588 20.0428 42.8392 21.3371C42.8298 21.9499 42.5995 22.5065 42.2269 22.9357L42.1536 23.0588C42.1069 23.1411 42.0371 23.2505 41.9651 23.3683C42.0122 23.471 42.0634 23.5871 42.1116 23.717C42.1131 23.7195 42.1149 23.722 42.1165 23.7248C42.1242 23.7381 42.1368 23.7586 42.1478 23.7775L42.2366 23.9367L42.2884 24.0324L42.3314 24.132L42.4144 24.3449C42.4857 24.5485 42.5238 24.7151 42.5306 24.7424C42.8655 26.0818 42.0507 27.4397 40.7112 27.7746C39.4314 28.0945 38.1387 27.364 37.7337 26.1301C37.7124 26.0923 37.6878 26.0498 37.6624 26.0021L37.5462 25.7697L37.47 25.6066L37.4183 25.4347C37.4245 25.4551 37.4481 25.4976 37.2894 25.1916C37.1892 24.9985 36.9324 24.5165 36.8372 23.8703L36.8069 23.5842C36.7755 23.0772 36.8008 22.2408 37.2562 21.4806L37.5745 20.9699C37.6486 20.8548 37.7082 20.7618 37.804 20.5929L37.9671 20.3156C38.0236 20.2233 38.0812 20.132 38.139 20.047C38.1911 19.9704 38.2809 19.8437 38.3929 19.7131C38.4429 19.6547 38.5561 19.5247 38.7191 19.3888C38.8 19.3214 38.9509 19.204 39.1605 19.0929C39.3397 18.998 39.7776 18.79 40.3773 18.799L40.6331 18.8156ZM40.3021 23.799C40.3876 23.8003 40.4697 23.7958 40.5482 23.7892C40.4671 23.7959 40.3851 23.8002 40.3021 23.799ZM40.5921 23.7843C40.6496 23.7785 40.7049 23.771 40.7581 23.7619C40.7033 23.7711 40.6481 23.7787 40.5921 23.7843ZM40.8646 23.7414C40.9028 23.7331 40.9394 23.7234 40.9749 23.714C40.9383 23.7236 40.9018 23.7334 40.8646 23.7414ZM41.0931 23.6808C41.1423 23.6652 41.1883 23.6493 41.2308 23.633C41.1855 23.6503 41.1396 23.6661 41.0931 23.6808Z" fill="#B23200"/>
</svg>
