<svg width="24" height="25" viewBox="0 0 24 25" fill="none" xmlns="http://www.w3.org/2000/svg">
<path fill-rule="evenodd" clip-rule="evenodd" d="M10.7949 3.2832C15.2132 3.2832 18.7949 6.86492 18.7949 11.2832C18.7949 13.2295 18.0987 15.0124 16.9434 16.3994L16.9844 16.4365L20.9844 20.4365L21.0361 20.4932C21.2764 20.7877 21.259 21.2225 20.9844 21.4971C20.7098 21.7717 20.275 21.7891 19.9805 21.5488L19.9238 21.4971L15.9238 17.4971L15.8848 17.4541C14.5016 18.5962 12.7287 19.2832 10.7949 19.2832C6.37664 19.2832 2.79492 15.7015 2.79492 11.2832C2.79492 6.86492 6.37664 3.2832 10.7949 3.2832ZM10.7949 4.7832C7.20507 4.7832 4.29492 7.69335 4.29492 11.2832C4.29492 14.8731 7.20507 17.7832 10.7949 17.7832C14.3848 17.7832 17.2949 14.8731 17.2949 11.2832C17.2949 7.69335 14.3848 4.7832 10.7949 4.7832Z" fill="black"/>
</svg>
