<svg width="24" height="24" viewBox="0 0 24 24" fill="none" xmlns="http://www.w3.org/2000/svg">
<path fill-rule="evenodd" clip-rule="evenodd" d="M10.7949 2.7832C15.2132 2.7832 18.7949 6.36492 18.7949 10.7832C18.7949 12.7295 18.0987 14.5124 16.9434 15.8994L16.9844 15.9365L20.9844 19.9365L21.0361 19.9932C21.2764 20.2877 21.259 20.7225 20.9844 20.9971C20.7098 21.2717 20.275 21.2891 19.9805 21.0488L19.9238 20.9971L15.9238 16.9971L15.8848 16.9541C14.5016 18.0962 12.7287 18.7832 10.7949 18.7832C6.37664 18.7832 2.79492 15.2015 2.79492 10.7832C2.79492 6.36492 6.37664 2.7832 10.7949 2.7832ZM10.7949 4.2832C7.20507 4.2832 4.29492 7.19335 4.29492 10.7832C4.29492 14.3731 7.20507 17.2832 10.7949 17.2832C14.3848 17.2832 17.2949 14.3731 17.2949 10.7832C17.2949 7.19335 14.3848 4.2832 10.7949 4.2832Z" fill="#92929B"/>
</svg>
