<svg width="25" height="24" viewBox="0 0 25 24" fill="none" xmlns="http://www.w3.org/2000/svg">
<path d="M10.5575 22C10.3053 22 10.0926 21.8122 10.0613 21.562L9.77436 19.266C9.75051 19.0751 9.61832 18.9171 9.44127 18.842C9.2674 18.7683 9.09075 18.6799 8.91133 18.577C8.72704 18.4711 8.55552 18.3603 8.39676 18.2446C8.24568 18.1345 8.04843 18.1035 7.87623 18.1762L5.7423 19.078C5.50986 19.1762 5.24066 19.0859 5.11456 18.8673L3.24848 15.6325C3.12244 15.414 3.17888 15.1358 3.38012 14.9838L5.22976 13.5859C5.37654 13.4749 5.44849 13.2925 5.43114 13.1094C5.42636 13.0589 5.42234 13.0084 5.41908 12.9578C5.40942 12.8078 5.40458 12.6583 5.40458 12.5095C5.40458 12.3673 5.40942 12.2228 5.41908 12.076C5.42315 12.0143 5.42839 11.9501 5.43481 11.8836C5.45208 11.7044 5.37935 11.5272 5.23576 11.4187L3.38086 10.0168C3.17931 9.86448 3.12305 9.58573 3.24975 9.36716L5.11459 6.15006C5.24079 5.93236 5.50911 5.84236 5.74105 5.93993L7.8743 6.83735C8.04239 6.90806 8.23473 6.88034 8.38287 6.774C8.55408 6.6511 8.73282 6.53577 8.91908 6.428C9.09584 6.32574 9.27061 6.23644 9.4434 6.16011C9.61452 6.08452 9.74076 5.92969 9.76453 5.74414L10.0602 3.43647C10.0921 3.18693 10.3045 3 10.5561 3H14.29C14.5423 3 14.755 3.18788 14.7862 3.43818L15.0745 5.75212C15.0977 5.93848 15.2243 6.09412 15.3968 6.16827C15.5864 6.24973 15.763 6.33947 15.9266 6.4375C16.0927 6.53696 16.2598 6.64856 16.428 6.77231C16.5748 6.88026 16.7668 6.90864 16.9351 6.83882L19.1078 5.93714C19.3393 5.84105 19.6063 5.9313 19.732 6.14821L21.5979 9.36713C21.7246 9.58571 21.6683 9.86448 21.4668 10.0168L19.5974 11.4294C19.4412 11.5473 19.3738 11.7451 19.3918 11.94C19.3961 11.9864 19.3988 12.0317 19.3998 12.076C19.403 12.2163 19.4046 12.3577 19.4046 12.5C19.4046 12.6358 19.4013 12.774 19.3948 12.9145C19.3925 12.9669 19.3878 13.0222 19.3808 13.0803C19.3573 13.2744 19.4259 13.4717 19.582 13.5893L21.4322 14.9839C21.6339 15.1358 21.6905 15.4143 21.5644 15.633L19.6992 18.8659C19.5727 19.0851 19.3025 19.1752 19.0698 19.0759L16.937 18.1653C16.7679 18.0931 16.5736 18.1208 16.4249 18.2293C16.2539 18.3542 16.0804 18.4684 15.9046 18.572C15.7387 18.6698 15.5702 18.7561 15.399 18.8308C15.2257 18.9065 15.0976 19.0627 15.0742 19.2502L14.7862 21.5618C14.755 21.8121 14.5423 22 14.29 22H10.5575ZM11.3703 20.0604C11.4009 20.3113 11.6139 20.5 11.8666 20.5H12.952C13.2024 20.5 13.4142 20.3147 13.4475 20.0665L13.7042 18.1537C13.7312 17.9526 13.8777 17.7897 14.071 17.7278C14.4571 17.6041 14.816 17.4459 15.1478 17.253C15.4839 17.0576 15.8104 16.8178 16.1274 16.5337C16.2776 16.3991 16.4911 16.3566 16.677 16.4348L18.4488 17.1795C18.6808 17.277 18.9491 17.1869 19.0752 16.9691L19.6173 16.0334C19.744 15.8145 19.6875 15.5356 19.4855 15.3834L17.9541 14.2295C17.784 14.1014 17.7169 13.8803 17.7654 13.673C17.7985 13.5317 17.8234 13.3919 17.8401 13.2537C17.8702 13.0051 17.8853 12.7538 17.8853 12.5C17.8853 12.2397 17.8702 11.9884 17.8401 11.7463C17.8238 11.615 17.7997 11.4821 17.7678 11.3478C17.7184 11.1397 17.7848 10.917 17.9555 10.788L19.5054 9.61669C19.7069 9.46442 19.7632 9.18578 19.6367 8.96722L19.0947 8.03133C18.9685 7.81339 18.6998 7.72334 18.4678 7.82116L16.6815 8.57412C16.4885 8.65547 16.2669 8.60609 16.1131 8.46395C15.8333 8.20544 15.5148 7.97129 15.1576 7.7615C14.8001 7.55164 14.4394 7.38864 14.0756 7.27251C13.8758 7.20874 13.723 7.04028 13.6985 6.83199L13.4758 4.94151C13.4462 4.68974 13.2328 4.5 12.9793 4.5H11.8812C11.6288 4.5 11.416 4.68804 11.385 4.93847L11.1511 6.82412C11.1254 7.03158 10.9726 7.19897 10.7725 7.25953C10.3898 7.37535 10.0306 7.52984 9.69508 7.723C9.35098 7.92112 9.01951 8.16468 8.70067 8.45368C8.55061 8.58969 8.33633 8.6337 8.14936 8.55585L6.37885 7.81864C6.14712 7.72215 5.87976 7.81243 5.75397 8.02965L5.2125 8.96464C5.08529 9.1843 5.14286 9.46443 5.34639 9.61612L6.85407 10.7398C7.02943 10.8705 7.09604 11.0993 7.04511 11.312C7.01473 11.4388 6.99098 11.5682 6.97383 11.7C6.9405 11.9563 6.92383 12.2262 6.92383 12.5095C6.92383 12.7698 6.9405 13.025 6.97383 13.275C6.99178 13.4096 7.01605 13.5433 7.04665 13.676C7.09407 13.8817 7.02718 14.1008 6.8591 14.2285L5.34045 15.3831C5.13982 15.5356 5.08407 15.8136 5.21037 16.0317L5.75248 16.9678C5.87892 17.1861 6.14819 17.276 6.38044 17.1775L8.13398 16.4336C8.3238 16.353 8.54225 16.3988 8.69392 16.5385C9.00168 16.822 9.32573 17.0617 9.66608 17.2578C10.0059 17.4533 10.3738 17.6132 10.7698 17.7374C10.9666 17.7991 11.1153 17.9656 11.1402 18.1703L11.3703 20.0604ZM12.4353 15.5C13.2673 15.5 13.9753 15.208 14.5593 14.624C15.1433 14.04 15.4353 13.332 15.4353 12.5C15.4353 11.668 15.1433 10.96 14.5593 10.376C13.9753 9.792 13.2673 9.5 12.4353 9.5C11.593 9.5 10.8824 9.792 10.3036 10.376C9.72475 10.96 9.43533 11.668 9.43533 12.5C9.43533 13.332 9.72475 14.04 10.3036 14.624C10.8824 15.208 11.593 15.5 12.4353 15.5Z" fill="#171719"/>
</svg>
