<svg width="24" height="24" viewBox="0 0 24 24" fill="none" xmlns="http://www.w3.org/2000/svg">
<path d="M10.5296 22C10.2775 22 10.0648 21.8122 10.0335 21.562L9.74653 19.266C9.72267 19.0751 9.59049 18.9171 9.41344 18.842C9.23957 18.7683 9.06292 18.6799 8.8835 18.577C8.69921 18.4711 8.52769 18.3603 8.36893 18.2446C8.21785 18.1345 8.0206 18.1035 7.8484 18.1762L5.71446 19.078C5.48203 19.1762 5.21282 19.0859 5.08673 18.8673L3.22065 15.6325C3.09461 15.414 3.15105 15.1358 3.35228 14.9838L5.20192 13.5859C5.34871 13.4749 5.42066 13.2925 5.40331 13.1094C5.39853 13.0589 5.39451 13.0084 5.39125 12.9578C5.38158 12.8078 5.37675 12.6583 5.37675 12.5095C5.37675 12.3673 5.38158 12.2228 5.39125 12.076C5.39531 12.0143 5.40055 11.9501 5.40697 11.8836C5.42425 11.7044 5.35152 11.5272 5.20793 11.4187L3.35303 10.0168C3.15147 9.86448 3.09522 9.58573 3.22192 9.36716L5.08676 6.15006C5.21295 5.93236 5.48128 5.84236 5.71322 5.93993L7.84647 6.83735C8.01456 6.90806 8.2069 6.88034 8.35504 6.774C8.52625 6.6511 8.70499 6.53577 8.89125 6.428C9.06801 6.32574 9.24278 6.23644 9.41557 6.16011C9.58669 6.08452 9.71293 5.92969 9.7367 5.74414L10.0323 3.43647C10.0643 3.18693 10.2767 3 10.5283 3H14.2622C14.5144 3 14.7272 3.18788 14.7583 3.43818L15.0467 5.75212C15.0699 5.93848 15.1965 6.09412 15.369 6.16827C15.5586 6.24973 15.7351 6.33947 15.8987 6.4375C16.0649 6.53696 16.232 6.64856 16.4002 6.77231C16.5469 6.88026 16.739 6.90864 16.9072 6.83882L19.0799 5.93714C19.3115 5.84105 19.5784 5.9313 19.7042 6.14821L21.5701 9.36713C21.6968 9.58571 21.6405 9.86448 21.4389 10.0168L19.5695 11.4294C19.4134 11.5473 19.346 11.7451 19.364 11.94C19.3683 11.9864 19.3709 12.0317 19.372 12.076C19.3752 12.2163 19.3767 12.3577 19.3767 12.5C19.3767 12.6358 19.3735 12.774 19.367 12.9145C19.3646 12.9669 19.3599 13.0222 19.3529 13.0803C19.3295 13.2744 19.3981 13.4717 19.5542 13.5893L21.4044 14.9839C21.606 15.1358 21.6627 15.4143 21.5365 15.633L19.6714 18.8659C19.5449 19.0851 19.2746 19.1752 19.0419 19.0759L16.9092 18.1653C16.74 18.0931 16.5457 18.1208 16.3971 18.2293C16.226 18.3542 16.0526 18.4684 15.8767 18.572C15.7109 18.6698 15.5424 18.7561 15.3712 18.8308C15.1979 18.9065 15.0697 19.0627 15.0464 19.2502L14.7583 21.5618C14.7272 21.8121 14.5144 22 14.2622 22H10.5296ZM11.3425 20.0604C11.373 20.3113 11.586 20.5 11.8388 20.5H12.9241C13.1746 20.5 13.3864 20.3147 13.4197 20.0665L13.6764 18.1537C13.7034 17.9526 13.8499 17.7897 14.0431 17.7278C14.4292 17.6041 14.7882 17.4459 15.12 17.253C15.4561 17.0576 15.7826 16.8178 16.0996 16.5337C16.2498 16.3991 16.4633 16.3566 16.6492 16.4348L18.421 17.1795C18.653 17.277 18.9212 17.1869 19.0474 16.9691L19.5894 16.0334C19.7162 15.8145 19.6596 15.5356 19.4577 15.3834L17.9262 14.2295C17.7562 14.1014 17.689 13.8803 17.7376 13.673C17.7707 13.5317 17.7956 13.3919 17.8123 13.2537C17.8424 13.0051 17.8575 12.7538 17.8575 12.5C17.8575 12.2397 17.8424 11.9884 17.8123 11.7463C17.796 11.615 17.7719 11.4821 17.74 11.3478C17.6906 11.1397 17.757 10.917 17.9277 10.788L19.4776 9.61669C19.6791 9.46442 19.7354 9.18578 19.6088 8.96722L19.0668 8.03133C18.9406 7.81339 18.672 7.72334 18.4399 7.82116L16.6537 8.57412C16.4607 8.65547 16.2391 8.60609 16.0853 8.46395C15.8055 8.20544 15.487 7.97129 15.1297 7.7615C14.7722 7.55164 14.4116 7.38864 14.0477 7.27251C13.8479 7.20874 13.6952 7.04028 13.6707 6.83199L13.448 4.94151C13.4183 4.68974 13.205 4.5 12.9514 4.5H11.8533C11.601 4.5 11.3882 4.68804 11.3571 4.93847L11.1233 6.82412C11.0976 7.03158 10.9448 7.19897 10.7447 7.25953C10.362 7.37535 10.0028 7.52984 9.66725 7.723C9.32315 7.92112 8.99168 8.16468 8.67284 8.45368C8.52277 8.58969 8.3085 8.6337 8.12153 8.55585L6.35101 7.81864C6.11928 7.72215 5.85193 7.81243 5.72614 8.02965L5.18467 8.96464C5.05746 9.1843 5.11503 9.46443 5.31855 9.61612L6.82624 10.7398C7.0016 10.8705 7.06821 11.0993 7.01727 11.312C6.9869 11.4388 6.96314 11.5682 6.946 11.7C6.91267 11.9563 6.896 12.2262 6.896 12.5095C6.896 12.7698 6.91267 13.025 6.946 13.275C6.96394 13.4096 6.98822 13.5433 7.01882 13.676C7.06624 13.8817 6.99935 14.1008 6.83127 14.2285L5.31262 15.3831C5.11199 15.5356 5.05624 15.8136 5.18254 16.0317L5.72465 16.9678C5.85108 17.1861 6.12036 17.276 6.35261 17.1775L8.10615 16.4336C8.29597 16.353 8.51442 16.3988 8.66609 16.5385C8.97385 16.822 9.2979 17.0617 9.63825 17.2578C9.97807 17.4533 10.346 17.6132 10.7419 17.7374C10.9387 17.7991 11.0874 17.9656 11.1123 18.1703L11.3425 20.0604ZM12.4075 15.5C13.2395 15.5 13.9475 15.208 14.5315 14.624C15.1155 14.04 15.4075 13.332 15.4075 12.5C15.4075 11.668 15.1155 10.96 14.5315 10.376C13.9475 9.792 13.2395 9.5 12.4075 9.5C11.5652 9.5 10.8546 9.792 10.2758 10.376C9.69692 10.96 9.4075 11.668 9.4075 12.5C9.4075 13.332 9.69692 14.04 10.2758 14.624C10.8546 15.208 11.5652 15.5 12.4075 15.5Z" fill="#171719"/>
</svg>
