<svg width="24" height="24" viewBox="0 0 24 24" fill="none" xmlns="http://www.w3.org/2000/svg">
<path fill-rule="evenodd" clip-rule="evenodd" d="M18.2727 3C19.779 3 21 4.22104 21 5.72727C21 7.2335 19.779 8.45455 18.2727 8.45455C17.4306 8.45455 16.6785 8.0721 16.1783 7.4723L9.45384 11.2937L16.5692 16.1452C17.0362 15.7709 17.6277 15.5455 18.2727 15.5455C19.779 15.5455 21 16.7665 21 18.2727C21 19.779 19.779 21 18.2727 21C16.7665 21 15.5455 19.779 15.5455 18.2727C15.5455 18.0059 15.5848 17.7483 15.6562 17.5046L8.16584 12.3963C7.71881 13.2922 6.79651 13.9091 5.72727 13.9091C4.22104 13.9091 3 12.688 3 11.1818C3 9.67559 4.22104 8.45455 5.72727 8.45455C6.85124 8.45455 7.81545 9.13486 8.23295 10.1058L15.5561 5.9446C15.5504 5.87285 15.5455 5.80048 15.5455 5.72727C15.5455 4.22104 16.7665 3 18.2727 3ZM18.2727 17.1818C17.6702 17.1818 17.1818 17.6702 17.1818 18.2727C17.1818 18.8752 17.6702 19.3636 18.2727 19.3636C18.8752 19.3636 19.3636 18.8752 19.3636 18.2727C19.3636 17.6702 18.8752 17.1818 18.2727 17.1818ZM5.72727 10.0909C5.12478 10.0909 4.63636 10.5793 4.63636 11.1818C4.63636 11.7843 5.12478 12.2727 5.72727 12.2727C6.32977 12.2727 6.81818 11.7843 6.81818 11.1818C6.81818 10.5793 6.32977 10.0909 5.72727 10.0909ZM18.2727 4.63636C17.6702 4.63636 17.1818 5.12478 17.1818 5.72727C17.1818 6.32977 17.6702 6.81818 18.2727 6.81818C18.8752 6.81818 19.3636 6.32977 19.3636 5.72727C19.3636 5.12478 18.8752 4.63636 18.2727 4.63636Z" fill="#787882"/>
</svg>
