<svg width="85" height="85" viewBox="0 0 85 85" fill="none" xmlns="http://www.w3.org/2000/svg">
<path d="M85 42.5C85 65.9721 65.9721 85 42.5 85C19.0279 85 0 65.9721 0 42.5C0 19.0279 19.0279 0 42.5 0C65.9721 0 85 19.0279 85 42.5Z" fill="white"/>
<path d="M73.6667 42.5C73.6667 25.2871 59.7129 11.3333 42.5 11.3333C25.2871 11.3333 11.3333 25.2871 11.3333 42.5C11.3333 59.7129 25.2871 73.6667 42.5 73.6667V85C19.0279 85 0 65.9721 0 42.5C0 19.0279 19.0279 0 42.5 0C65.9721 0 85 19.0279 85 42.5C85 65.9721 65.9721 85 42.5 85V73.6667C59.7129 73.6667 73.6667 59.7129 73.6667 42.5Z" fill="#FEEDE6"/>
<path d="M32.1111 42.5C32.1111 45.108 29.9969 47.2222 27.3889 47.2222C24.7809 47.2222 22.6667 45.108 22.6667 42.5C22.6667 39.892 24.7809 37.7778 27.3889 37.7778C29.9969 37.7778 32.1111 39.892 32.1111 42.5Z" fill="#FEEDE6"/>
<path d="M47.2222 42.5C47.2222 45.108 45.108 47.2222 42.5 47.2222C39.892 47.2222 37.7778 45.108 37.7778 42.5C37.7778 39.892 39.892 37.7778 42.5 37.7778C45.108 37.7778 47.2222 39.892 47.2222 42.5Z" fill="#FEEDE6"/>
<path d="M62.3333 42.5C62.3333 45.108 60.2191 47.2222 57.6111 47.2222C55.0031 47.2222 52.8889 45.108 52.8889 42.5C52.8889 39.892 55.0031 37.7778 57.6111 37.7778C60.2191 37.7778 62.3333 39.892 62.3333 42.5Z" fill="#FEEDE6"/>
</svg>
