<svg width="16" height="16" viewBox="0 0 16 16" fill="none" xmlns="http://www.w3.org/2000/svg">
<path d="M8 0.5C12.1421 0.5 15.5 3.85786 15.5 8C15.5 12.1421 12.1421 15.5 8 15.5C3.85786 15.5 0.5 12.1421 0.5 8C0.5 3.85786 3.85786 0.5 8 0.5ZM8 1.625C4.47918 1.625 1.625 4.47918 1.625 8C1.625 11.5208 4.47918 14.375 8 14.375C11.5208 14.375 14.375 11.5208 14.375 8C14.375 4.47918 11.5208 1.625 8 1.625ZM8 10.0625C8.31066 10.0625 8.5625 10.3143 8.5625 10.625C8.5625 10.9357 8.31066 11.1875 8 11.1875C7.68937 11.1875 7.4375 10.9356 7.4375 10.625C7.4375 10.3144 7.68937 10.0625 8 10.0625ZM8.5625 9.3125H7.4375V4.8125H8.5625V9.3125Z" fill="#E2E2E4"/>
</svg>
